<?xml version="1.0" encoding="iso-8859-1"?>
<!-- Generator: Adobe Illustrator 19.0.0, SVG Export Plug-In . SVG Version: 6.00 Build 0)  -->
<svg version="1.1" id="Capa_1" xmlns="http://www.w3.org/2000/svg" xmlns:xlink="http://www.w3.org/1999/xlink" x="0px" y="0px"
	 viewBox="0 0 512 512" style="enable-background:new 0 0 512 512;" xml:space="preserve">
<circle style="fill:#5B7063;" cx="256" cy="256" r="256"/>
<path style="fill:#515B50;" d="M149.865,362.135l-53.069,53.069c40.722,40.721,96.996,65.89,159.204,65.89v-75.031
	C214.528,406.063,177.012,389.284,149.865,362.135z"/>
<path style="fill:#5B7063;" d="M202.932,309.068l-53.068,53.068c27.147,27.147,64.663,43.927,106.135,43.927v-75.031
	C235.263,331.031,216.506,322.641,202.932,309.068z"/>
<path style="fill:#658577;" d="M202.932,309.068c13.574,13.574,32.332,21.963,53.068,21.963V256L202.932,309.068z"/>
<path style="fill:#5B7063;" d="M105.937,256H30.905c0,62.209,25.169,118.482,65.89,159.204l53.068-53.068
	C122.716,334.988,105.937,297.472,105.937,256z"/>
<path style="fill:#658577;" d="M180.969,256h-75.031c0,41.472,16.78,78.988,43.927,106.135l53.068-53.068
	C189.359,295.494,180.969,276.737,180.969,256z"/>
<g>
	<path style="fill:#6F9A8A;" d="M180.969,256c0,20.737,8.39,39.494,21.963,53.068L256,256H180.969z"/>
	<path style="fill:#6F9A8A;" d="M256,105.937V30.905c-62.209,0-118.482,25.169-159.204,65.89l53.068,53.068
		C177.012,122.716,214.527,105.937,256,105.937z"/>
</g>
<path style="fill:#8BAD9C;" d="M256,180.969v-75.031c-41.473,0-78.988,16.78-106.135,43.927l53.068,53.068
	C216.506,189.359,235.263,180.969,256,180.969z"/>
<path style="fill:#A6C1AD;" d="M256,180.969c-20.737,0-39.494,8.39-53.068,21.963L256,256V180.969z"/>
<path style="fill:#658577;" d="M149.865,149.864L96.796,96.796C56.075,137.518,30.905,193.791,30.905,256h75.031
	C105.937,214.527,122.716,177.012,149.865,149.864z"/>
<path style="fill:#6F9A8A;" d="M202.932,202.932l-53.068-53.068c-27.147,27.147-43.927,64.663-43.927,106.136h75.031
	C180.969,235.263,189.358,216.506,202.932,202.932z"/>
<path style="fill:#8BAD9C;" d="M202.932,202.932c-13.574,13.574-21.963,32.331-21.963,53.068H256L202.932,202.932z"/>
<path style="fill:#A6C1AD;" d="M406.063,256h75.031c0-62.209-25.169-118.482-65.89-159.204l-53.068,53.068
	C389.284,177.012,406.063,214.527,406.063,256z"/>
<path style="fill:#C2D5BF;" d="M309.068,202.932c13.574,13.574,21.963,32.331,21.963,53.068h75.031
	c0-41.473-16.78-78.988-43.927-106.136L309.068,202.932z"/>
<path style="fill:#DDE8D0;" d="M331.031,256c0-20.737-8.39-39.494-21.963-53.068L256,256H331.031z"/>
<path style="fill:#8BAD9C;" d="M362.135,149.864l53.069-53.068C374.482,56.075,318.208,30.905,256,30.905v75.031
	C297.473,105.937,334.988,122.716,362.135,149.864z"/>
<path style="fill:#A6C1AD;" d="M309.068,202.932l53.068-53.068c-27.147-27.147-64.663-43.927-106.135-43.927v75.031
	C276.737,180.969,295.494,189.359,309.068,202.932z"/>
<path style="fill:#C2D5BF;" d="M256,256l53.068-53.068c-13.574-13.574-32.331-21.963-53.068-21.963V256z"/>
<path style="fill:#658577;" d="M256,406.063v75.031c62.209,0,118.482-25.169,159.204-65.89l-53.068-53.068
	C334.988,389.284,297.473,406.063,256,406.063z"/>
<path style="fill:#6F9A8A;" d="M256,331.031v75.031c41.473,0,78.988-16.78,106.135-43.927l-53.068-53.068
	C295.494,322.641,276.737,331.031,256,331.031z"/>
<g>
	<path style="fill:#8BAD9C;" d="M256,331.031c20.737,0,39.494-8.39,53.068-21.963L256,256V331.031z"/>
	<path style="fill:#8BAD9C;" d="M406.063,256c0,41.472-16.78,78.988-43.927,106.135l53.068,53.068
		c40.721-40.721,65.89-96.995,65.89-159.203H406.063z"/>
</g>
<path style="fill:#A6C1AD;" d="M309.068,309.068l53.068,53.068c27.147-27.147,43.927-64.663,43.927-106.135h-75.031
	C331.031,276.737,322.641,295.494,309.068,309.068z"/>
<path style="fill:#C2D5BF;" d="M309.068,309.068c13.574-13.574,21.963-32.332,21.963-53.068H256L309.068,309.068z"/>
<g>
	<path style="fill:#E4EDC0;" d="M420.667,91.333c-3.018-3.017-7.91-3.017-10.927,0c-3.017,3.017-3.017,7.91,0,10.926
		c39.208,39.207,61.567,90.804,63.479,146.014h-59.615c-1.877-39.276-18.045-75.913-46.004-103.873
		c-29.787-29.787-69.42-46.19-111.6-46.19c-4.268,0-7.726,3.459-7.726,7.726s3.458,7.726,7.726,7.726
		c38.053,0,73.805,14.796,100.672,41.664c25.042,25.041,39.591,57.8,41.454,92.946h-59.734
		c-1.764-19.202-10.074-37.015-23.862-50.804c-0.006-0.006-0.013-0.011-0.02-0.018C298.892,181.838,278.113,173.24,256,173.24
		c-22.122,0-42.908,8.604-58.531,24.227c-3.018,3.017-3.018,7.909-0.001,10.926c1.509,1.509,3.486,2.263,5.464,2.263
		c1.977,0,3.955-0.754,5.463-2.263c12.705-12.704,29.612-19.7,47.606-19.7c17.991,0,34.894,6.994,47.598,19.694
		c0.002,0.002,0.004,0.005,0.006,0.007c10.866,10.866,17.54,24.812,19.248,39.878H256c-4.268,0-7.726,3.459-7.726,7.726
		c0,4.267,3.458,7.726,7.726,7.726h225.095c4.268,0,7.726-3.459,7.726-7.726C488.821,193.762,464.617,135.281,420.667,91.333z"/>
	<path style="fill:#E4EDC0;" d="M256,38.632c3.616,0,7.273,0.09,10.869,0.267c0.13,0.006,0.258,0.009,0.385,0.009
		c4.093,0,7.508-3.214,7.711-7.347c0.209-4.262-3.076-7.887-7.338-8.096c-3.848-0.189-7.76-0.284-11.628-0.284
		c-4.268,0-7.726,3.459-7.726,7.726S251.732,38.632,256,38.632z"/>
	<path style="fill:#E4EDC0;" d="M335.749,53.696c14.658,5.775,28.731,13.186,41.824,22.028c1.326,0.895,2.829,1.325,4.316,1.325
		c2.481,0,4.917-1.193,6.411-3.404c2.387-3.537,1.457-8.339-2.079-10.727c-14.026-9.473-29.102-17.412-44.808-23.599
		c-3.967-1.563-8.456,0.386-10.021,4.357C329.829,47.646,331.78,52.132,335.749,53.696z"/>
	<path style="fill:#E4EDC0;" d="M215.163,111.341c-1.365-4.043-5.75-6.209-9.794-4.845c-6.736,2.278-13.381,5.042-19.749,8.217
		c-3.819,1.904-5.371,6.544-3.467,10.363c1.353,2.711,4.083,4.28,6.921,4.28c1.158,0,2.335-0.262,3.442-0.814
		c5.739-2.862,11.73-5.354,17.803-7.407C214.361,119.768,216.53,115.382,215.163,111.341z"/>
	<circle style="fill:#E4EDC0;" cx="180.972" cy="256" r="7.726"/>
</g>
<g>
	<circle style="fill:#FEFBE1;" cx="362.14" cy="149.86" r="15.453"/>
	<circle style="fill:#FEFBE1;" cx="256" cy="180.972" r="15.453"/>
	<circle style="fill:#FEFBE1;" cx="149.86" cy="149.86" r="15.453"/>
	<circle style="fill:#FEFBE1;" cx="149.86" cy="362.14" r="15.453"/>
	<circle style="fill:#FEFBE1;" cx="30.905" cy="256" r="15.453"/>
	<circle style="fill:#FEFBE1;" cx="309.065" cy="309.065" r="15.453"/>
</g>
<g>
</g>
<g>
</g>
<g>
</g>
<g>
</g>
<g>
</g>
<g>
</g>
<g>
</g>
<g>
</g>
<g>
</g>
<g>
</g>
<g>
</g>
<g>
</g>
<g>
</g>
<g>
</g>
<g>
</g>
</svg>
