<svg width="22" height="22" viewBox="0 0 22 22" version="1.1" xmlns="http://www.w3.org/2000/svg" xmlns:xlink="http://www.w3.org/1999/xlink">
    <title>red</title>
    <desc>Created using Figma</desc>
    <g id="Canvas" transform="translate(-1 -1)">
      <g id="red">
        <g id="Shape">
          <use xlink:href="#path0_fill" transform="translate(2 2)" fill="#FF001B"/>
          <use xlink:href="#path1_stroke" transform="translate(2 2)" fill="#FFFFFF"/>
        </g>
        <g id="Path">
          <use xlink:href="#path2_fill" transform="translate(5 6.58)" fill="#FFFFFF"/>
        </g>
      </g>
    </g>
    <defs>
      <path id="path0_fill" d="M 10 0C 4.48 0 0 4.48 0 10C 0 15.52 4.48 20 10 20C 15.52 20 20 15.52 20 10C 20 4.48 15.52 0 10 0Z"/>
      <path id="path1_stroke" d="M 10 -1C 3.92772 -1 -1 3.92772 -1 10L 1 10C 1 5.03228 5.03228 1 10 1L 10 -1ZM -1 10C -1 16.0723 3.92772 21 10 21L 10 19C 5.03228 19 1 14.9677 1 10L -1 10ZM 10 21C 16.0723 21 21 16.0723 21 10L 19 10C 19 14.9677 14.9677 19 10 19L 10 21ZM 21 10C 21 3.92772 16.0723 -1 10 -1L 10 1C 14.9677 1 19 5.03228 19 10L 21 10Z"/>
      <path id="path2_fill" fill-rule="evenodd" d="M 5 10.42L 0 5.42L 1.41 4.01L 5 7.59L 12.59 0L 14 1.42L 5 10.42Z"/>
    </defs>
</svg>