<?xml version="1.0" encoding="iso-8859-1"?>
<!-- Generator: Adobe Illustrator 19.0.0, SVG Export Plug-In . SVG Version: 6.00 Build 0)  -->
<svg version="1.1" id="Capa_1" xmlns="http://www.w3.org/2000/svg" xmlns:xlink="http://www.w3.org/1999/xlink" x="0px" y="0px"
	 viewBox="0 0 512 512" style="enable-background:new 0 0 512 512;" xml:space="preserve">
<path style="fill:#A8EEFC;" d="M504.516,99.358H209.862c-0.013,0-0.026,0.002-0.039,0.002v376.924c0.013,0,0.026,0.002,0.039,0.002
	h294.654c4.134,0,7.484-3.351,7.484-7.484V106.842C512,102.709,508.65,99.358,504.516,99.358z"/>
<g>
	<path style="fill:#44C868;" d="M107.433,35.782c0.333-0.045,0.669-0.049,1.005-0.05v-0.018
		C108.101,35.714,107.766,35.738,107.433,35.782z"/>
	<path style="fill:#44C868;" d="M209.351,97.81l-96.929-60.958c-1.216-0.764-2.6-1.123-3.985-1.12v378.255l96.968,60.983
		c1.204,0.757,2.574,1.14,3.946,1.147L209.351,97.81L209.351,97.81z"/>
</g>
<g>
	<rect x="209.387" y="99.19" style="fill:#4CE166;" width="144.844" height="102.733"/>
	<path style="fill:#4CE166;" d="M397.39,309.233v166.885h106.654c4.134,0,7.484-3.351,7.484-7.484V309.233H397.39z"/>
	<rect x="209.387" y="245.081" style="fill:#4CE166;" width="144.844" height="85.32"/>
	<path style="fill:#4CE166;" d="M108.438,35.714c-1.386,0-2.769,0.373-3.985,1.137L3.5,100.34c-2.178,1.369-3.5,3.762-3.5,6.335
		v361.959c0,2.724,1.48,5.234,3.865,6.551c1.129,0.624,2.375,0.933,3.619,0.933c1.386,0,2.769-0.384,3.985-1.149l96.969-60.983
		C108.438,413.987,108.438,35.714,108.438,35.714z"/>
</g>
<polygon style="fill:#FFBB24;" points="108.399,138.346 108.399,181.614 209.351,245.103 209.351,201.835 "/>
<polygon style="fill:#FFDB56;" points="0,250.457 108.399,181.614 108.399,138.346 0,206.627 "/>
<polygon style="fill:#FFBB24;" points="108.399,266.899 108.399,310.167 209.351,373.656 209.351,330.388 "/>
<g>
	<polygon style="fill:#FFDB56;" points="0,378.339 108.399,310.167 108.399,266.899 0,335.071 	"/>
	<polygon style="fill:#FFDB56;" points="511.528,309.233 511.528,266.077 397.39,266.077 397.39,201.608 511.13,201.608 
		511.13,158.451 397.39,158.451 397.39,99.191 354.233,99.191 354.233,201.922 209.39,201.922 209.39,245.079 354.233,245.079 
		354.233,330.396 209.39,330.396 209.39,373.553 299.835,373.553 209.39,463.998 209.39,476.118 209.39,476.118 258.303,476.118 
		354.233,380.187 354.233,476.115 397.39,476.118 397.39,309.233 	"/>
</g>
<path style="fill:#FF4A4A;" d="M346.448,134.531c-50.648,0-91.853,41.205-91.853,91.853c0,73.781,83.709,139.404,87.272,142.162
	c1.349,1.043,2.965,1.565,4.58,1.565s3.231-0.522,4.58-1.565c3.563-2.758,87.273-68.381,87.273-142.162
	C438.301,175.736,397.096,134.531,346.448,134.531z M346.448,192.734c18.585,0,33.65,15.066,33.65,33.65
	c0,18.585-15.065,33.65-33.65,33.65s-33.65-15.066-33.65-33.65C312.798,207.799,327.863,192.734,346.448,192.734z"/>
<path style="fill:#E7343F;" d="M346.448,134.531c-4.518,0-8.96,0.333-13.305,0.967c44.364,6.466,78.548,44.756,78.548,90.886
	c0,60.539-56.35,115.577-78.548,134.91c4.856,4.228,8.086,6.758,8.726,7.253c1.349,1.043,2.965,1.565,4.58,1.565
	s3.231-0.522,4.58-1.565c3.563-2.758,87.273-68.381,87.273-142.162C438.301,175.736,397.096,134.531,346.448,134.531z"/>
<circle style="fill:#FFFFFF;" cx="346.447" cy="226.381" r="33.65"/>
<path style="fill:#A8EEFC;" d="M0.472,378.506v90.295c0,2.724,1.48,5.234,3.865,6.551c1.129,0.623,2.375,0.933,3.619,0.933
	c1.386,0,2.769-0.384,3.985-1.149l96.968-60.983l-0.039-103.819L0.472,378.506z"/>
<polygon style="fill:#1EA4E9;" points="108.871,310.334 108.909,414.153 209.823,476.283 209.862,373.72 "/>
<g>
</g>
<g>
</g>
<g>
</g>
<g>
</g>
<g>
</g>
<g>
</g>
<g>
</g>
<g>
</g>
<g>
</g>
<g>
</g>
<g>
</g>
<g>
</g>
<g>
</g>
<g>
</g>
<g>
</g>
</svg>
